# Blender v2.83.0 OBJ File: 'merd.blend'
# www.blender.org
mtllib heatmap-middlebottom.mtl
o Cone.001_Cone.003
v 0.000000 -0.540000 -0.850000
v -0.000000 -0.600000 -0.750000
v -0.165827 -0.540000 -0.833667
v -0.146318 -0.600000 -0.735589
v -0.325281 -0.540000 -0.785298
v -0.287013 -0.600000 -0.692910
v -0.472235 -0.540000 -0.706749
v -0.416678 -0.600000 -0.623602
v -0.601041 -0.540000 -0.601041
v -0.530330 -0.600000 -0.530330
v -0.706749 -0.540000 -0.472235
v -0.623602 -0.600000 -0.416678
v -0.785298 -0.540000 -0.325281
v -0.692910 -0.600000 -0.287013
v -0.833667 -0.540000 -0.165827
v -0.735589 -0.600000 -0.146318
v -0.850000 -0.540000 -0.000000
v -0.750000 -0.600000 -0.000000
v -0.833668 -0.540000 0.165827
v -0.735589 -0.600000 0.146318
v -0.785298 -0.540000 0.325281
v -0.692910 -0.600000 0.287012
v -0.706749 -0.540000 0.472235
v -0.623602 -0.600000 0.416678
v -0.601041 -0.540000 0.601041
v -0.530330 -0.600000 0.530330
v -0.472235 -0.540000 0.706749
v -0.416678 -0.600000 0.623602
v -0.325281 -0.540000 0.785298
v -0.287012 -0.600000 0.692910
v -0.165827 -0.540000 0.833668
v -0.146318 -0.600000 0.735589
v 0.000000 -0.540000 0.850000
v 0.000000 -0.600000 0.750000
v 0.165827 -0.540000 0.833667
v 0.146318 -0.600000 0.735589
v 0.325281 -0.540000 0.785297
v 0.287013 -0.600000 0.692909
v 0.472235 -0.540000 0.706749
v 0.416678 -0.600000 0.623602
v 0.601041 -0.540000 0.601040
v 0.530330 -0.600000 0.530330
v 0.706750 -0.540000 0.472234
v 0.623603 -0.600000 0.416677
v 0.785298 -0.540000 0.325280
v 0.692910 -0.600000 0.287012
v 0.833668 -0.540000 0.165826
v 0.735589 -0.600000 0.146317
v 0.850000 -0.540000 -0.000001
v 0.750000 -0.600000 -0.000001
v 0.833667 -0.540000 -0.165828
v 0.735589 -0.600000 -0.146319
v 0.785297 -0.540000 -0.325282
v 0.692909 -0.600000 -0.287013
v 0.706749 -0.540000 -0.472236
v 0.623602 -0.600000 -0.416678
v 0.601040 -0.540000 -0.601042
v 0.530329 -0.600000 -0.530331
v 0.472234 -0.540000 -0.706750
v 0.416677 -0.600000 -0.623603
v 0.325280 -0.540000 -0.785298
v 0.287012 -0.600000 -0.692910
v 0.165826 -0.540000 -0.833668
v 0.146317 -0.600000 -0.735589
vt 1.000000 1.000000
vt 0.968750 0.500000
vt 1.000000 0.500000
vt 0.937500 1.000000
vt 0.937500 0.500000
vt 0.906250 1.000000
vt 0.906250 0.500000
vt 0.875000 0.500000
vt 0.843750 1.000000
vt 0.843750 0.500000
vt 0.812500 0.500000
vt 0.812500 1.000000
vt 0.781250 0.500000
vt 0.750000 1.000000
vt 0.750000 0.500000
vt 0.718750 0.500000
vt 0.718750 1.000000
vt 0.687500 0.500000
vt 0.656250 1.000000
vt 0.656250 0.500000
vt 0.625000 0.500000
vt 0.593750 1.000000
vt 0.593750 0.500000
vt 0.562500 0.500000
vt 0.562500 1.000000
vt 0.531250 0.500000
vt 0.500000 1.000000
vt 0.500000 0.500000
vt 0.468750 1.000000
vt 0.468750 0.500000
vt 0.437500 0.500000
vt 0.437500 1.000000
vt 0.406250 0.500000
vt 0.375000 1.000000
vt 0.375000 0.500000
vt 0.343750 1.000000
vt 0.343750 0.500000
vt 0.312500 1.000000
vt 0.312500 0.500000
vt 0.281250 0.500000
vt 0.281250 1.000000
vt 0.250000 0.500000
vt 0.250000 1.000000
vt 0.218750 0.500000
vt 0.218750 1.000000
vt 0.187500 0.500000
vt 0.187500 1.000000
vt 0.156250 0.500000
vt 0.125000 1.000000
vt 0.125000 0.500000
vt 0.093750 1.000000
vt 0.093750 0.500000
vt 0.062500 1.000000
vt 0.062500 0.500000
vt 0.158156 0.028269
vt 0.471731 0.158156
vt 0.341844 0.471731
vt 0.031250 0.500000
vt 0.000000 1.000000
vt 0.000000 0.500000
vt 0.985388 0.296822
vt 0.796822 0.014612
vt 0.514611 0.203179
vt 0.968750 1.000000
vt 0.875000 1.000000
vt 0.781250 1.000000
vt 0.687500 1.000000
vt 0.625000 1.000000
vt 0.531250 1.000000
vt 0.406250 1.000000
vt 0.156250 1.000000
vt 0.296822 0.485388
vt 0.250000 0.490000
vt 0.203179 0.485389
vt 0.158156 0.471731
vt 0.116663 0.449553
vt 0.080295 0.419706
vt 0.050447 0.383337
vt 0.028269 0.341844
vt 0.014612 0.296822
vt 0.010000 0.250000
vt 0.014611 0.203179
vt 0.028269 0.158156
vt 0.050447 0.116663
vt 0.080294 0.080295
vt 0.116663 0.050447
vt 0.203178 0.014612
vt 0.250000 0.010000
vt 0.296822 0.014612
vt 0.341844 0.028269
vt 0.383337 0.050447
vt 0.419706 0.080294
vt 0.449553 0.116663
vt 0.485388 0.203178
vt 0.490000 0.250000
vt 0.485388 0.296822
vt 0.471731 0.341844
vt 0.449553 0.383337
vt 0.419706 0.419706
vt 0.383337 0.449553
vt 0.031250 1.000000
vt 0.703179 0.485389
vt 0.750000 0.490000
vt 0.796822 0.485388
vt 0.841844 0.471731
vt 0.883337 0.449553
vt 0.919706 0.419706
vt 0.949553 0.383337
vt 0.971731 0.341844
vt 0.990000 0.250000
vt 0.985388 0.203178
vt 0.971731 0.158156
vt 0.949553 0.116663
vt 0.919706 0.080294
vt 0.883337 0.050447
vt 0.841844 0.028269
vt 0.750000 0.010000
vt 0.703178 0.014612
vt 0.658156 0.028269
vt 0.616663 0.050447
vt 0.580294 0.080294
vt 0.550447 0.116663
vt 0.528269 0.158156
vt 0.510000 0.250000
vt 0.550447 0.383337
vt 0.514612 0.296822
vt 0.528269 0.341844
vt 0.580295 0.419706
vt 0.616663 0.449553
vt 0.658156 0.471731
vn -0.0506 -0.8564 -0.5138
vn -0.1499 -0.8564 -0.4941
vn -0.2434 -0.8564 -0.4554
vn -0.3276 -0.8564 -0.3991
vn -0.3991 -0.8564 -0.3276
vn -0.4554 -0.8564 -0.2434
vn -0.4941 -0.8564 -0.1499
vn -0.5138 -0.8564 -0.0506
vn -0.5138 -0.8564 0.0506
vn -0.4941 -0.8564 0.1499
vn -0.4554 -0.8564 0.2434
vn -0.3991 -0.8564 0.3276
vn -0.3276 -0.8564 0.3991
vn -0.2434 -0.8564 0.4554
vn -0.1499 -0.8564 0.4941
vn -0.0506 -0.8564 0.5138
vn 0.0506 -0.8564 0.5138
vn 0.1499 -0.8564 0.4941
vn 0.2434 -0.8564 0.4554
vn 0.3276 -0.8564 0.3991
vn 0.3991 -0.8564 0.3276
vn 0.4554 -0.8564 0.2434
vn 0.4941 -0.8564 0.1499
vn 0.5138 -0.8564 0.0506
vn 0.5138 -0.8564 -0.0506
vn 0.4941 -0.8564 -0.1499
vn 0.4554 -0.8564 -0.2434
vn 0.3991 -0.8564 -0.3276
vn 0.3276 -0.8564 -0.3991
vn 0.2434 -0.8564 -0.4554
vn -0.0000 -1.0000 0.0000
vn 0.1499 -0.8564 -0.4941
vn 0.0506 -0.8564 -0.5138
vn 0.0000 1.0000 0.0000
usemtl None
s off
f 2/1/1 3/2/1 1/3/1
f 3/2/2 6/4/2 5/5/2
f 5/5/3 8/6/3 7/7/3
f 8/6/4 9/8/4 7/7/4
f 9/8/5 12/9/5 11/10/5
f 12/9/6 13/11/6 11/10/6
f 14/12/7 15/13/7 13/11/7
f 15/13/8 18/14/8 17/15/8
f 18/14/9 19/16/9 17/15/9
f 20/17/10 21/18/10 19/16/10
f 21/18/11 24/19/11 23/20/11
f 24/19/12 25/21/12 23/20/12
f 25/21/13 28/22/13 27/23/13
f 28/22/14 29/24/14 27/23/14
f 30/25/15 31/26/15 29/24/15
f 31/26/16 34/27/16 33/28/16
f 33/28/17 36/29/17 35/30/17
f 36/29/18 37/31/18 35/30/18
f 38/32/19 39/33/19 37/31/19
f 39/33/20 42/34/20 41/35/20
f 41/35/21 44/36/21 43/37/21
f 43/37/22 46/38/22 45/39/22
f 46/38/23 47/40/23 45/39/23
f 48/41/24 49/42/24 47/40/24
f 50/43/25 51/44/25 49/42/25
f 52/45/26 53/46/26 51/44/26
f 54/47/27 55/48/27 53/46/27
f 55/48/28 58/49/28 57/50/28
f 57/50/29 60/51/29 59/52/29
f 59/52/30 62/53/30 61/54/30
f 38/55/31 22/56/31 6/57/31
f 62/53/32 63/58/32 61/54/32
f 63/58/33 2/59/33 1/60/33
f 15/61/34 31/62/34 47/63/34
f 2/1/1 4/64/1 3/2/1
f 3/2/2 4/64/2 6/4/2
f 5/5/3 6/4/3 8/6/3
f 8/6/4 10/65/4 9/8/4
f 9/8/5 10/65/5 12/9/5
f 12/9/6 14/12/6 13/11/6
f 14/12/7 16/66/7 15/13/7
f 15/13/8 16/66/8 18/14/8
f 18/14/9 20/17/9 19/16/9
f 20/17/10 22/67/10 21/18/10
f 21/18/11 22/67/11 24/19/11
f 24/19/12 26/68/12 25/21/12
f 25/21/13 26/68/13 28/22/13
f 28/22/14 30/25/14 29/24/14
f 30/25/15 32/69/15 31/26/15
f 31/26/16 32/69/16 34/27/16
f 33/28/17 34/27/17 36/29/17
f 36/29/18 38/32/18 37/31/18
f 38/32/19 40/70/19 39/33/19
f 39/33/20 40/70/20 42/34/20
f 41/35/21 42/34/21 44/36/21
f 43/37/22 44/36/22 46/38/22
f 46/38/23 48/41/23 47/40/23
f 48/41/24 50/43/24 49/42/24
f 50/43/25 52/45/25 51/44/25
f 52/45/26 54/47/26 53/46/26
f 54/47/27 56/71/27 55/48/27
f 55/48/28 56/71/28 58/49/28
f 57/50/29 58/49/29 60/51/29
f 59/52/30 60/51/30 62/53/30
f 6/57/31 4/72/31 2/73/31
f 2/73/31 64/74/31 6/57/31
f 64/74/31 62/75/31 6/57/31
f 62/75/31 60/76/31 58/77/31
f 58/77/31 56/78/31 62/75/31
f 56/78/31 54/79/31 62/75/31
f 54/79/31 52/80/31 50/81/31
f 50/81/31 48/82/31 46/83/31
f 46/83/31 44/84/31 42/85/31
f 42/85/31 40/86/31 38/55/31
f 38/55/31 36/87/31 34/88/31
f 34/88/31 32/89/31 38/55/31
f 32/89/31 30/90/31 38/55/31
f 30/90/31 28/91/31 26/92/31
f 26/92/31 24/93/31 22/56/31
f 22/56/31 20/94/31 18/95/31
f 18/95/31 16/96/31 22/56/31
f 16/96/31 14/97/31 22/56/31
f 14/97/31 12/98/31 10/99/31
f 10/99/31 8/100/31 6/57/31
f 54/79/31 50/81/31 46/83/31
f 46/83/31 42/85/31 54/79/31
f 42/85/31 38/55/31 54/79/31
f 30/90/31 26/92/31 38/55/31
f 26/92/31 22/56/31 38/55/31
f 14/97/31 10/99/31 6/57/31
f 6/57/31 62/75/31 54/79/31
f 22/56/31 14/97/31 6/57/31
f 6/57/31 54/79/31 38/55/31
f 62/53/32 64/101/32 63/58/32
f 63/58/33 64/101/33 2/59/33
f 63/102/34 1/103/34 3/104/34
f 3/104/34 5/105/34 7/106/34
f 7/106/34 9/107/34 15/61/34
f 9/107/34 11/108/34 15/61/34
f 11/108/34 13/109/34 15/61/34
f 15/61/34 17/110/34 19/111/34
f 19/111/34 21/112/34 15/61/34
f 21/112/34 23/113/34 15/61/34
f 23/113/34 25/114/34 27/115/34
f 27/115/34 29/116/34 31/62/34
f 31/62/34 33/117/34 35/118/34
f 35/118/34 37/119/34 31/62/34
f 37/119/34 39/120/34 31/62/34
f 39/120/34 41/121/34 47/63/34
f 41/121/34 43/122/34 47/63/34
f 43/122/34 45/123/34 47/63/34
f 47/63/34 49/124/34 55/125/34
f 49/124/34 51/126/34 55/125/34
f 51/126/34 53/127/34 55/125/34
f 55/125/34 57/128/34 63/102/34
f 57/128/34 59/129/34 63/102/34
f 59/129/34 61/130/34 63/102/34
f 63/102/34 3/104/34 15/61/34
f 3/104/34 7/106/34 15/61/34
f 23/113/34 27/115/34 31/62/34
f 15/61/34 23/113/34 31/62/34
f 31/62/34 39/120/34 47/63/34
f 47/63/34 55/125/34 63/102/34
f 63/102/34 15/61/34 47/63/34
