# Blender v2.83.0 OBJ File: 'merd.blend'
# www.blender.org
mtllib heatmap-bottomlayer.mtl
o Cone.003_Cone.005
v 0.000000 -0.600000 -0.750000
v -0.146318 -0.600000 -0.735589
v -0.287013 -0.600000 -0.692910
v -0.416678 -0.600000 -0.623602
v -0.530330 -0.600000 -0.530330
v -0.623602 -0.600000 -0.416678
v -0.692910 -0.600000 -0.287013
v -0.735589 -0.600000 -0.146318
v -0.750000 -0.600000 -0.000000
v -0.735589 -0.600000 0.146318
v -0.692910 -0.600000 0.287012
v -0.623602 -0.600000 0.416678
v -0.530330 -0.600000 0.530330
v -0.416678 -0.600000 0.623602
v -0.287012 -0.600000 0.692910
v -0.146318 -0.600000 0.735589
v 0.000000 -0.600000 0.750000
v 0.146318 -0.600000 0.735589
v 0.287013 -0.600000 0.692909
v 0.416678 -0.600000 0.623602
v 0.530330 -0.600000 0.530330
v 0.623603 -0.600000 0.416677
v 0.692910 -0.600000 0.287012
v -0.000000 -0.720000 0.000000
v 0.735589 -0.600000 0.146317
v 0.750000 -0.600000 -0.000001
v 0.735589 -0.600000 -0.146319
v 0.692909 -0.600000 -0.287013
v 0.623602 -0.600000 -0.416678
v 0.530329 -0.600000 -0.530331
v 0.416677 -0.600000 -0.623603
v 0.287012 -0.600000 -0.692910
v 0.146317 -0.600000 -0.735589
vt 0.250000 0.490000
vt 0.250000 0.250000
vt 0.296822 0.485388
vt 0.341844 0.471731
vt 0.383337 0.449553
vt 0.419706 0.419706
vt 0.449553 0.383337
vt 0.471731 0.341844
vt 0.485388 0.296822
vt 0.490000 0.250000
vt 0.485388 0.203178
vt 0.471731 0.158156
vt 0.449553 0.116663
vt 0.419706 0.080294
vt 0.383337 0.050447
vt 0.341844 0.028269
vt 0.296822 0.014612
vt 0.250000 0.010000
vt 0.203178 0.014612
vt 0.158156 0.028269
vt 0.116663 0.050447
vt 0.080294 0.080295
vt 0.050447 0.116663
vt 0.028269 0.158156
vt 0.014611 0.203179
vt 0.010000 0.250000
vt 0.014612 0.296822
vt 0.028269 0.341844
vt 0.050447 0.383337
vt 0.080295 0.419706
vt 0.116663 0.449553
vt 0.158156 0.471731
vt 0.203179 0.485389
vt 0.796822 0.014612
vt 0.514611 0.203179
vt 0.703179 0.485389
vt 0.750000 0.490000
vt 0.796822 0.485388
vt 0.841844 0.471731
vt 0.883337 0.449553
vt 0.919706 0.419706
vt 0.985388 0.296822
vt 0.949553 0.383337
vt 0.971731 0.341844
vt 0.990000 0.250000
vt 0.985388 0.203178
vt 0.971731 0.158156
vt 0.949553 0.116663
vt 0.919706 0.080294
vt 0.883337 0.050447
vt 0.841844 0.028269
vt 0.750000 0.010000
vt 0.703178 0.014612
vt 0.658156 0.028269
vt 0.616663 0.050447
vt 0.580294 0.080295
vt 0.550447 0.116663
vt 0.528269 0.158156
vt 0.510000 0.250000
vt 0.514612 0.296822
vt 0.528269 0.341844
vt 0.550447 0.383337
vt 0.580295 0.419706
vt 0.616663 0.449553
vt 0.658156 0.471731
vn -0.0156 -0.9873 -0.1580
vn -0.0461 -0.9873 -0.1519
vn -0.0748 -0.9873 -0.1400
vn -0.1007 -0.9873 -0.1227
vn -0.1227 -0.9873 -0.1007
vn -0.1400 -0.9873 -0.0748
vn -0.1519 -0.9873 -0.0461
vn -0.1580 -0.9873 -0.0156
vn -0.1580 -0.9873 0.0156
vn -0.1519 -0.9873 0.0461
vn -0.1400 -0.9873 0.0748
vn -0.1227 -0.9873 0.1007
vn -0.1007 -0.9873 0.1227
vn -0.0748 -0.9873 0.1400
vn -0.0461 -0.9873 0.1519
vn -0.0156 -0.9873 0.1580
vn 0.0156 -0.9873 0.1580
vn 0.0461 -0.9873 0.1519
vn 0.0748 -0.9873 0.1400
vn 0.1007 -0.9873 0.1227
vn 0.1227 -0.9873 0.1007
vn 0.1400 -0.9873 0.0748
vn 0.1519 -0.9873 0.0461
vn 0.1580 -0.9873 0.0156
vn 0.1580 -0.9873 -0.0156
vn 0.1519 -0.9873 -0.0461
vn 0.1400 -0.9873 -0.0748
vn 0.1227 -0.9873 -0.1007
vn 0.1007 -0.9873 -0.1227
vn 0.0748 -0.9873 -0.1400
vn 0.0461 -0.9873 -0.1519
vn 0.0156 -0.9873 -0.1580
vn 0.0000 1.0000 -0.0000
usemtl None
s off
f 1/1/1 24/2/1 2/3/1
f 2/3/2 24/2/2 3/4/2
f 3/4/3 24/2/3 4/5/3
f 4/5/4 24/2/4 5/6/4
f 5/6/5 24/2/5 6/7/5
f 6/7/6 24/2/6 7/8/6
f 7/8/7 24/2/7 8/9/7
f 8/9/8 24/2/8 9/10/8
f 9/10/9 24/2/9 10/11/9
f 10/11/10 24/2/10 11/12/10
f 11/12/11 24/2/11 12/13/11
f 12/13/12 24/2/12 13/14/12
f 13/14/13 24/2/13 14/15/13
f 14/15/14 24/2/14 15/16/14
f 15/16/15 24/2/15 16/17/15
f 16/17/16 24/2/16 17/18/16
f 17/18/17 24/2/17 18/19/17
f 18/19/18 24/2/18 19/20/18
f 19/20/19 24/2/19 20/21/19
f 20/21/20 24/2/20 21/22/20
f 21/22/21 24/2/21 22/23/21
f 22/23/22 24/2/22 23/24/22
f 23/24/23 24/2/23 25/25/23
f 25/25/24 24/2/24 26/26/24
f 26/26/25 24/2/25 27/27/25
f 27/27/26 24/2/26 28/28/26
f 28/28/27 24/2/27 29/29/27
f 29/29/28 24/2/28 30/30/28
f 30/30/29 24/2/29 31/31/29
f 31/31/30 24/2/30 32/32/30
f 32/32/31 24/2/31 33/33/31
f 33/33/32 24/2/32 1/1/32
f 16/34/33 25/35/33 33/36/33
f 33/36/33 1/37/33 2/38/33
f 2/38/33 3/39/33 33/36/33
f 3/39/33 4/40/33 33/36/33
f 4/40/33 5/41/33 8/42/33
f 5/41/33 6/43/33 8/42/33
f 6/43/33 7/44/33 8/42/33
f 8/42/33 9/45/33 10/46/33
f 10/46/33 11/47/33 8/42/33
f 11/47/33 12/48/33 8/42/33
f 12/48/33 13/49/33 16/34/33
f 13/49/33 14/50/33 16/34/33
f 14/50/33 15/51/33 16/34/33
f 16/34/33 17/52/33 18/53/33
f 18/53/33 19/54/33 16/34/33
f 19/54/33 20/55/33 16/34/33
f 20/55/33 21/56/33 25/35/33
f 21/56/33 22/57/33 25/35/33
f 22/57/33 23/58/33 25/35/33
f 25/35/33 26/59/33 27/60/33
f 27/60/33 28/61/33 29/62/33
f 29/62/33 30/63/33 31/64/33
f 31/64/33 32/65/33 33/36/33
f 25/35/33 27/60/33 29/62/33
f 29/62/33 31/64/33 33/36/33
f 33/36/33 4/40/33 8/42/33
f 8/42/33 12/48/33 16/34/33
f 16/34/33 20/55/33 25/35/33
f 25/35/33 29/62/33 33/36/33
f 33/36/33 8/42/33 16/34/33
