# Blender v2.83.1 OBJ File: 'merd.blend'
# www.blender.org
mtllib roundParticle.mtl
o Sphere
v 0.000000 0.014142 -0.014142
v 0.000000 0.007654 -0.018478
v 0.000000 -0.007654 -0.018478
v 0.000000 -0.018478 -0.007654
v 0.002929 0.018478 -0.007071
v 0.005412 0.014142 -0.013066
v 0.007071 0.007654 -0.017071
v 0.007654 -0.000000 -0.018478
v 0.007071 -0.007654 -0.017071
v 0.005412 -0.014142 -0.013066
v 0.002929 -0.018478 -0.007071
v 0.005412 0.018478 -0.005412
v 0.010000 0.014142 -0.010000
v 0.013066 0.007654 -0.013066
v 0.014142 -0.000000 -0.014142
v 0.013066 -0.007654 -0.013066
v 0.010000 -0.014142 -0.010000
v 0.005412 -0.018478 -0.005412
v 0.007071 0.018478 -0.002929
v 0.013066 0.014142 -0.005412
v 0.017071 0.007654 -0.007071
v 0.018478 -0.000000 -0.007654
v 0.017071 -0.007654 -0.007071
v 0.013066 -0.014142 -0.005412
v 0.007071 -0.018478 -0.002929
v 0.007654 0.018478 -0.000000
v 0.014142 0.014142 0.000000
v 0.018478 0.007654 -0.000000
v 0.020000 -0.000000 0.000000
v 0.018478 -0.007654 -0.000000
v 0.014142 -0.014142 0.000000
v 0.007654 -0.018478 -0.000000
v 0.007071 0.018478 0.002929
v 0.013066 0.014142 0.005412
v 0.017071 0.007654 0.007071
v 0.018478 -0.000000 0.007654
v 0.017071 -0.007654 0.007071
v 0.013066 -0.014142 0.005412
v 0.007071 -0.018478 0.002929
v 0.005412 0.018478 0.005412
v 0.010000 0.014142 0.010000
v 0.013066 0.007654 0.013066
v 0.014142 -0.000000 0.014142
v 0.013066 -0.007654 0.013066
v 0.010000 -0.014142 0.010000
v 0.005412 -0.018478 0.005412
v 0.002929 0.018478 0.007071
v 0.005412 0.014142 0.013066
v 0.007071 0.007654 0.017071
v 0.007654 -0.000000 0.018478
v 0.007071 -0.007654 0.017071
v 0.005412 -0.014142 0.013066
v 0.002929 -0.018478 0.007071
v -0.000000 0.018478 0.007654
v -0.000000 0.014142 0.014142
v -0.000000 0.007654 0.018478
v -0.000000 -0.000000 0.020000
v -0.000000 -0.007654 0.018478
v -0.000000 -0.014142 0.014142
v -0.000000 -0.018478 0.007654
v -0.002929 0.018478 0.007071
v -0.005412 0.014142 0.013066
v -0.007071 0.007654 0.017071
v -0.007654 -0.000000 0.018478
v -0.007071 -0.007654 0.017071
v -0.005412 -0.014142 0.013066
v -0.002929 -0.018478 0.007071
v -0.005412 0.018478 0.005412
v -0.010000 0.014142 0.010000
v -0.013066 0.007654 0.013066
v -0.014142 -0.000000 0.014142
v -0.013066 -0.007654 0.013066
v -0.010000 -0.014142 0.010000
v -0.005412 -0.018478 0.005412
v -0.007071 0.018478 0.002929
v -0.013066 0.014142 0.005412
v -0.017071 0.007654 0.007071
v -0.018478 -0.000000 0.007654
v -0.017071 -0.007654 0.007071
v -0.013066 -0.014142 0.005412
v -0.007071 -0.018478 0.002929
v -0.007654 0.018478 -0.000000
v -0.014142 0.014142 -0.000000
v -0.018478 0.007654 -0.000000
v -0.020000 -0.000000 -0.000000
v -0.018478 -0.007654 -0.000000
v -0.014142 -0.014142 -0.000000
v -0.007654 -0.018478 -0.000000
v -0.007071 0.018478 -0.002929
v -0.013066 0.014142 -0.005412
v -0.017071 0.007654 -0.007071
v -0.018478 -0.000000 -0.007654
v -0.017071 -0.007654 -0.007071
v -0.013066 -0.014142 -0.005412
v -0.007071 -0.018478 -0.002929
v -0.005412 0.018478 -0.005412
v -0.010000 0.014142 -0.010000
v -0.013066 0.007654 -0.013066
v -0.014142 -0.000000 -0.014142
v -0.013066 -0.007654 -0.013066
v -0.010000 -0.014142 -0.010000
v -0.005412 -0.018478 -0.005412
v -0.002929 0.018478 -0.007071
v -0.005412 0.014142 -0.013066
v -0.007071 0.007654 -0.017071
v -0.007654 -0.000000 -0.018478
v -0.007071 -0.007654 -0.017071
v -0.005412 -0.014142 -0.013066
v -0.002929 -0.018478 -0.007071
v -0.000000 0.020000 -0.000000
v 0.000000 0.018478 -0.007654
v 0.000000 -0.000000 -0.020000
v 0.000000 -0.014142 -0.014142
v 0.000000 -0.020000 -0.000000
vt 0.750000 0.250000
vt 0.687500 0.125000
vt 0.750000 0.125000
vt 0.750000 0.500000
vt 0.687500 0.375000
vt 0.750000 0.375000
vt 0.750000 0.750000
vt 0.687500 0.625000
vt 0.750000 0.625000
vt 0.750000 0.875000
vt 0.718750 1.000000
vt 0.687500 0.875000
vt 0.718750 0.000000
vt 0.687500 0.250000
vt 0.687500 0.500000
vt 0.687500 0.750000
vt 0.656250 0.000000
vt 0.625000 0.125000
vt 0.625000 0.375000
vt 0.625000 0.250000
vt 0.625000 0.625000
vt 0.625000 0.500000
vt 0.625000 0.750000
vt 0.656250 1.000000
vt 0.625000 0.875000
vt 0.562500 0.625000
vt 0.562500 0.500000
vt 0.562500 0.875000
vt 0.562500 0.750000
vt 0.562500 0.125000
vt 0.562500 0.375000
vt 0.593750 1.000000
vt 0.593750 0.000000
vt 0.562500 0.250000
vt 0.500000 0.125000
vt 0.500000 0.375000
vt 0.500000 0.625000
vt 0.531250 1.000000
vt 0.500000 0.875000
vt 0.531250 0.000000
vt 0.500000 0.250000
vt 0.500000 0.500000
vt 0.500000 0.750000
vt 0.437500 0.625000
vt 0.468750 1.000000
vt 0.437500 0.875000
vt 0.468750 0.000000
vt 0.437500 0.125000
vt 0.437500 0.375000
vt 0.437500 0.250000
vt 0.437500 0.500000
vt 0.437500 0.750000
vt 0.406250 0.000000
vt 0.375000 0.125000
vt 0.375000 0.375000
vt 0.375000 0.250000
vt 0.375000 0.500000
vt 0.375000 0.875000
vt 0.375000 0.750000
vt 0.375000 0.625000
vt 0.406250 1.000000
vt 0.312500 0.875000
vt 0.312500 0.750000
vt 0.312500 0.125000
vt 0.312500 0.500000
vt 0.312500 0.375000
vt 0.312500 0.625000
vt 0.343750 1.000000
vt 0.343750 0.000000
vt 0.312500 0.250000
vt 0.250000 0.125000
vt 0.250000 0.500000
vt 0.250000 0.375000
vt 0.250000 0.625000
vt 0.281250 1.000000
vt 0.250000 0.875000
vt 0.281250 0.000000
vt 0.250000 0.250000
vt 0.250000 0.750000
vt 0.218750 1.000000
vt 0.187500 0.875000
vt 0.218750 0.000000
vt 0.187500 0.125000
vt 0.187500 0.375000
vt 0.187500 0.250000
vt 0.187500 0.500000
vt 0.187500 0.750000
vt 0.187500 0.625000
vt 0.125000 0.375000
vt 0.125000 0.250000
vt 0.125000 0.500000
vt 0.125000 0.875000
vt 0.125000 0.750000
vt 0.125000 0.125000
vt 0.125000 0.625000
vt 0.156250 1.000000
vt 0.156250 0.000000
vt 0.062500 0.250000
vt 0.062500 0.125000
vt 0.062500 0.500000
vt 0.062500 0.375000
vt 0.062500 0.625000
vt 0.093750 1.000000
vt 0.062500 0.875000
vt 0.093750 0.000000
vt 0.062500 0.750000
vt 0.000000 0.500000
vt 0.000000 0.375000
vt 0.000000 0.625000
vt 0.031250 1.000000
vt 0.000000 0.875000
vt 0.031250 0.000000
vt 0.000000 0.125000
vt 0.000000 0.250000
vt 0.000000 0.750000
vt 0.968750 0.000000
vt 1.000000 0.125000
vt 0.937500 0.125000
vt 1.000000 0.250000
vt 0.937500 0.375000
vt 0.937500 0.250000
vt 1.000000 0.625000
vt 0.937500 0.500000
vt 1.000000 0.500000
vt 1.000000 0.875000
vt 0.937500 0.750000
vt 1.000000 0.750000
vt 1.000000 0.375000
vt 0.937500 0.625000
vt 0.968750 1.000000
vt 0.937500 0.875000
vt 0.875000 0.500000
vt 0.875000 0.875000
vt 0.875000 0.750000
vt 0.875000 0.250000
vt 0.875000 0.125000
vt 0.875000 0.375000
vt 0.875000 0.625000
vt 0.906250 1.000000
vt 0.906250 0.000000
vt 0.812500 0.250000
vt 0.812500 0.125000
vt 0.812500 0.500000
vt 0.812500 0.375000
vt 0.812500 0.625000
vt 0.843750 1.000000
vt 0.812500 0.875000
vt 0.843750 0.000000
vt 0.812500 0.750000
vt 0.781250 1.000000
vt 0.781250 0.000000
vn 0.1098 -0.8264 -0.5522
vn 0.1915 -0.1915 -0.9626
vn 0.1632 0.5481 -0.8203
vn 0.0388 0.9800 -0.1949
vn 0.0388 -0.9800 -0.1949
vn 0.1632 -0.5481 -0.8203
vn 0.1915 0.1915 -0.9626
vn 0.1098 0.8264 -0.5522
vn 0.1104 -0.9800 -0.1653
vn 0.4647 -0.5481 -0.6954
vn 0.5453 0.1915 -0.8161
vn 0.3128 0.8264 -0.4681
vn 0.3128 -0.8264 -0.4681
vn 0.5453 -0.1915 -0.8161
vn 0.4647 0.5481 -0.6954
vn 0.1104 0.9800 -0.1653
vn 0.8161 0.1915 -0.5453
vn 0.4681 0.8264 -0.3128
vn 0.4681 -0.8264 -0.3128
vn 0.8161 -0.1915 -0.5453
vn 0.6954 0.5481 -0.4647
vn 0.1653 0.9800 -0.1104
vn 0.1653 -0.9800 -0.1104
vn 0.6954 -0.5481 -0.4647
vn 0.5522 -0.8264 -0.1098
vn 0.9626 -0.1915 -0.1915
vn 0.8203 0.5481 -0.1632
vn 0.1949 0.9800 -0.0388
vn 0.1949 -0.9800 -0.0388
vn 0.8203 -0.5481 -0.1632
vn 0.9626 0.1915 -0.1915
vn 0.5522 0.8264 -0.1098
vn 0.8203 0.5481 0.1632
vn 0.1949 0.9800 0.0388
vn 0.1949 -0.9800 0.0388
vn 0.8203 -0.5481 0.1632
vn 0.9626 0.1915 0.1915
vn 0.5522 0.8264 0.1098
vn 0.5522 -0.8264 0.1098
vn 0.9626 -0.1915 0.1915
vn 0.1653 -0.9800 0.1104
vn 0.6954 -0.5481 0.4647
vn 0.8161 0.1915 0.5453
vn 0.4681 0.8264 0.3128
vn 0.4681 -0.8264 0.3128
vn 0.8161 -0.1915 0.5453
vn 0.6954 0.5481 0.4647
vn 0.1653 0.9800 0.1104
vn 0.3128 0.8264 0.4681
vn 0.3128 -0.8264 0.4681
vn 0.5453 -0.1915 0.8161
vn 0.4647 0.5481 0.6954
vn 0.1104 0.9800 0.1653
vn 0.1104 -0.9800 0.1653
vn 0.4647 -0.5481 0.6954
vn 0.5453 0.1915 0.8161
vn 0.1098 -0.8264 0.5522
vn 0.1915 -0.1915 0.9626
vn 0.1632 0.5481 0.8203
vn 0.0388 0.9800 0.1949
vn 0.0388 -0.9800 0.1949
vn 0.1632 -0.5481 0.8203
vn 0.1915 0.1915 0.9626
vn 0.1098 0.8264 0.5522
vn -0.0388 0.9800 0.1949
vn -0.0388 -0.9800 0.1949
vn -0.1632 -0.5481 0.8203
vn -0.1915 0.1915 0.9626
vn -0.1098 0.8264 0.5522
vn -0.1098 -0.8264 0.5522
vn -0.1915 -0.1915 0.9626
vn -0.1632 0.5481 0.8203
vn -0.4647 -0.5481 0.6954
vn -0.5453 0.1915 0.8161
vn -0.3128 0.8264 0.4681
vn -0.3128 -0.8264 0.4681
vn -0.5453 -0.1915 0.8161
vn -0.4647 0.5481 0.6954
vn -0.1104 0.9800 0.1653
vn -0.1104 -0.9800 0.1653
vn -0.4681 -0.8264 0.3128
vn -0.8161 -0.1915 0.5453
vn -0.6954 0.5481 0.4647
vn -0.1653 0.9800 0.1104
vn -0.1653 -0.9800 0.1104
vn -0.6954 -0.5481 0.4647
vn -0.8161 0.1915 0.5453
vn -0.4681 0.8264 0.3128
vn -0.9626 -0.1915 0.1915
vn -0.8203 0.5481 0.1632
vn -0.1949 0.9800 0.0388
vn -0.1949 -0.9800 0.0388
vn -0.8203 -0.5481 0.1632
vn -0.9626 0.1915 0.1915
vn -0.5522 0.8264 0.1098
vn -0.5522 -0.8264 0.1098
vn -0.1949 -0.9800 -0.0388
vn -0.8203 -0.5481 -0.1632
vn -0.9626 0.1915 -0.1915
vn -0.5522 0.8264 -0.1098
vn -0.5522 -0.8264 -0.1098
vn -0.9626 -0.1915 -0.1915
vn -0.8203 0.5481 -0.1632
vn -0.1949 0.9800 -0.0388
vn -0.8161 0.1915 -0.5453
vn -0.4681 0.8264 -0.3128
vn -0.4681 -0.8264 -0.3128
vn -0.8161 -0.1915 -0.5453
vn -0.6954 0.5481 -0.4647
vn -0.1653 0.9800 -0.1104
vn -0.1653 -0.9800 -0.1104
vn -0.6954 -0.5481 -0.4647
vn -0.3128 -0.8264 -0.4681
vn -0.5453 -0.1915 -0.8161
vn -0.4647 0.5481 -0.6954
vn -0.1104 0.9800 -0.1653
vn -0.1104 -0.9800 -0.1653
vn -0.4647 -0.5481 -0.6954
vn -0.5453 0.1915 -0.8161
vn -0.3128 0.8264 -0.4681
vn -0.1632 0.5481 -0.8203
vn -0.0388 0.9800 -0.1949
vn -0.0388 -0.9800 -0.1949
vn -0.1632 -0.5481 -0.8203
vn -0.1915 0.1915 -0.9626
vn -0.1098 0.8264 -0.5522
vn -0.1098 -0.8264 -0.5522
vn -0.1915 -0.1915 -0.9626
usemtl None
s off
f 113/1/1 11/2/1 4/3/1
f 112/4/2 9/5/2 3/6/2
f 1/7/3 7/8/3 2/9/3
f 111/10/4 110/11/4 5/12/4
f 114/13/5 4/3/5 11/2/5
f 113/1/6 9/5/6 10/14/6
f 112/4/7 7/8/7 8/15/7
f 111/10/8 6/16/8 1/7/8
f 114/17/9 11/2/9 18/18/9
f 10/14/10 16/19/10 17/20/10
f 8/15/11 14/21/11 15/22/11
f 5/12/12 13/23/12 6/16/12
f 11/2/13 17/20/13 18/18/13
f 8/15/14 16/19/14 9/5/14
f 6/16/15 14/21/15 7/8/15
f 5/12/16 110/24/16 12/25/16
f 15/22/17 21/26/17 22/27/17
f 13/23/18 19/28/18 20/29/18
f 17/20/19 25/30/19 18/18/19
f 15/22/20 23/31/20 16/19/20
f 13/23/21 21/26/21 14/21/21
f 12/25/22 110/32/22 19/28/22
f 114/33/23 18/18/23 25/30/23
f 17/20/24 23/31/24 24/34/24
f 24/34/25 32/35/25 25/30/25
f 22/27/26 30/36/26 23/31/26
f 20/29/27 28/37/27 21/26/27
f 19/28/28 110/38/28 26/39/28
f 114/40/29 25/30/29 32/35/29
f 24/34/30 30/36/30 31/41/30
f 22/27/31 28/37/31 29/42/31
f 20/29/32 26/39/32 27/43/32
f 27/43/33 35/44/33 28/37/33
f 26/39/34 110/45/34 33/46/34
f 114/47/35 32/35/35 39/48/35
f 31/41/36 37/49/36 38/50/36
f 29/42/37 35/44/37 36/51/37
f 27/43/38 33/46/38 34/52/38
f 31/41/39 39/48/39 32/35/39
f 29/42/40 37/49/40 30/36/40
f 114/53/41 39/48/41 46/54/41
f 38/50/42 44/55/42 45/56/42
f 35/44/43 43/57/43 36/51/43
f 34/52/44 40/58/44 41/59/44
f 38/50/45 46/54/45 39/48/45
f 36/51/46 44/55/46 37/49/46
f 34/52/47 42/60/47 35/44/47
f 33/46/48 110/61/48 40/58/48
f 41/59/49 47/62/49 48/63/49
f 45/56/50 53/64/50 46/54/50
f 44/55/51 50/65/51 51/66/51
f 41/59/52 49/67/52 42/60/52
f 40/58/53 110/68/53 47/62/53
f 114/69/54 46/54/54 53/64/54
f 45/56/55 51/66/55 52/70/55
f 42/60/56 50/65/56 43/57/56
f 52/70/57 60/71/57 53/64/57
f 51/66/58 57/72/58 58/73/58
f 48/63/59 56/74/59 49/67/59
f 47/62/60 110/75/60 54/76/60
f 114/77/61 53/64/61 60/71/61
f 52/70/62 58/73/62 59/78/62
f 49/67/63 57/72/63 50/65/63
f 48/63/64 54/76/64 55/79/64
f 54/76/65 110/80/65 61/81/65
f 114/82/66 60/71/66 67/83/66
f 59/78/67 65/84/67 66/85/67
f 56/74/68 64/86/68 57/72/68
f 55/79/69 61/81/69 62/87/69
f 59/78/70 67/83/70 60/71/70
f 58/73/71 64/86/71 65/84/71
f 55/79/72 63/88/72 56/74/72
f 66/85/73 72/89/73 73/90/73
f 63/88/74 71/91/74 64/86/74
f 62/87/75 68/92/75 69/93/75
f 66/85/76 74/94/76 67/83/76
f 65/84/77 71/91/77 72/89/77
f 62/87/78 70/95/78 63/88/78
f 61/81/79 110/96/79 68/92/79
f 114/97/80 67/83/80 74/94/80
f 74/94/81 80/98/81 81/99/81
f 72/89/82 78/100/82 79/101/82
f 69/93/83 77/102/83 70/95/83
f 68/92/84 110/103/84 75/104/84
f 114/105/85 74/94/85 81/99/85
f 73/90/86 79/101/86 80/98/86
f 70/95/87 78/100/87 71/91/87
f 68/92/88 76/106/88 69/93/88
f 79/101/89 85/107/89 86/108/89
f 76/106/90 84/109/90 77/102/90
f 75/104/91 110/110/91 82/111/91
f 114/112/92 81/99/92 88/113/92
f 80/98/93 86/108/93 87/114/93
f 77/102/94 85/107/94 78/100/94
f 75/104/95 83/115/95 76/106/95
f 81/99/96 87/114/96 88/113/96
f 114/116/97 88/117/97 95/118/97
f 87/119/98 93/120/98 94/121/98
f 84/122/99 92/123/99 85/124/99
f 82/125/100 90/126/100 83/127/100
f 88/117/101 94/121/101 95/118/101
f 86/128/102 92/123/102 93/120/102
f 83/127/103 91/129/103 84/122/103
f 82/125/104 110/130/104 89/131/104
f 91/129/105 99/132/105 92/123/105
f 90/126/106 96/133/106 97/134/106
f 95/118/107 101/135/107 102/136/107
f 93/120/108 99/132/108 100/137/108
f 90/126/109 98/138/109 91/129/109
f 89/131/110 110/139/110 96/133/110
f 114/140/111 95/118/111 102/136/111
f 94/121/112 100/137/112 101/135/112
f 102/136/113 108/141/113 109/142/113
f 100/137/114 106/143/114 107/144/114
f 97/134/115 105/145/115 98/138/115
f 96/133/116 110/146/116 103/147/116
f 114/148/117 102/136/117 109/142/117
f 101/135/118 107/144/118 108/141/118
f 98/138/119 106/143/119 99/132/119
f 96/133/120 104/149/120 97/134/120
f 105/145/121 1/7/121 2/9/121
f 103/147/122 110/150/122 111/10/122
f 114/151/123 109/142/123 4/3/123
f 108/141/124 3/6/124 113/1/124
f 106/143/125 2/9/125 112/4/125
f 104/149/126 111/10/126 1/7/126
f 108/141/127 4/3/127 109/142/127
f 106/143/128 3/6/128 107/144/128
f 113/1/1 10/14/1 11/2/1
f 112/4/2 8/15/2 9/5/2
f 1/7/3 6/16/3 7/8/3
f 113/1/6 3/6/6 9/5/6
f 112/4/7 2/9/7 7/8/7
f 111/10/8 5/12/8 6/16/8
f 10/14/10 9/5/10 16/19/10
f 8/15/11 7/8/11 14/21/11
f 5/12/12 12/25/12 13/23/12
f 11/2/13 10/14/13 17/20/13
f 8/15/14 15/22/14 16/19/14
f 6/16/15 13/23/15 14/21/15
f 15/22/17 14/21/17 21/26/17
f 13/23/18 12/25/18 19/28/18
f 17/20/19 24/34/19 25/30/19
f 15/22/20 22/27/20 23/31/20
f 13/23/21 20/29/21 21/26/21
f 17/20/24 16/19/24 23/31/24
f 24/34/25 31/41/25 32/35/25
f 22/27/26 29/42/26 30/36/26
f 20/29/27 27/43/27 28/37/27
f 24/34/30 23/31/30 30/36/30
f 22/27/31 21/26/31 28/37/31
f 20/29/32 19/28/32 26/39/32
f 27/43/33 34/52/33 35/44/33
f 31/41/36 30/36/36 37/49/36
f 29/42/37 28/37/37 35/44/37
f 27/43/38 26/39/38 33/46/38
f 31/41/39 38/50/39 39/48/39
f 29/42/40 36/51/40 37/49/40
f 38/50/42 37/49/42 44/55/42
f 35/44/43 42/60/43 43/57/43
f 34/52/44 33/46/44 40/58/44
f 38/50/45 45/56/45 46/54/45
f 36/51/46 43/57/46 44/55/46
f 34/52/47 41/59/47 42/60/47
f 41/59/49 40/58/49 47/62/49
f 45/56/50 52/70/50 53/64/50
f 44/55/51 43/57/51 50/65/51
f 41/59/52 48/63/52 49/67/52
f 45/56/55 44/55/55 51/66/55
f 42/60/56 49/67/56 50/65/56
f 52/70/57 59/78/57 60/71/57
f 51/66/58 50/65/58 57/72/58
f 48/63/59 55/79/59 56/74/59
f 52/70/62 51/66/62 58/73/62
f 49/67/63 56/74/63 57/72/63
f 48/63/64 47/62/64 54/76/64
f 59/78/67 58/73/67 65/84/67
f 56/74/68 63/88/68 64/86/68
f 55/79/69 54/76/69 61/81/69
f 59/78/70 66/85/70 67/83/70
f 58/73/71 57/72/71 64/86/71
f 55/79/72 62/87/72 63/88/72
f 66/85/73 65/84/73 72/89/73
f 63/88/74 70/95/74 71/91/74
f 62/87/75 61/81/75 68/92/75
f 66/85/76 73/90/76 74/94/76
f 65/84/77 64/86/77 71/91/77
f 62/87/78 69/93/78 70/95/78
f 74/94/81 73/90/81 80/98/81
f 72/89/82 71/91/82 78/100/82
f 69/93/83 76/106/83 77/102/83
f 73/90/86 72/89/86 79/101/86
f 70/95/87 77/102/87 78/100/87
f 68/92/88 75/104/88 76/106/88
f 79/101/89 78/100/89 85/107/89
f 76/106/90 83/115/90 84/109/90
f 80/98/93 79/101/93 86/108/93
f 77/102/94 84/109/94 85/107/94
f 75/104/95 82/111/95 83/115/95
f 81/99/96 80/98/96 87/114/96
f 87/119/98 86/128/98 93/120/98
f 84/122/99 91/129/99 92/123/99
f 82/125/100 89/131/100 90/126/100
f 88/117/101 87/119/101 94/121/101
f 86/128/102 85/124/102 92/123/102
f 83/127/103 90/126/103 91/129/103
f 91/129/105 98/138/105 99/132/105
f 90/126/106 89/131/106 96/133/106
f 95/118/107 94/121/107 101/135/107
f 93/120/108 92/123/108 99/132/108
f 90/126/109 97/134/109 98/138/109
f 94/121/112 93/120/112 100/137/112
f 102/136/113 101/135/113 108/141/113
f 100/137/114 99/132/114 106/143/114
f 97/134/115 104/149/115 105/145/115
f 101/135/118 100/137/118 107/144/118
f 98/138/119 105/145/119 106/143/119
f 96/133/120 103/147/120 104/149/120
f 105/145/121 104/149/121 1/7/121
f 108/141/124 107/144/124 3/6/124
f 106/143/125 105/145/125 2/9/125
f 104/149/126 103/147/126 111/10/126
f 108/141/127 113/1/127 4/3/127
f 106/143/128 112/4/128 3/6/128
